<?xml version="1.0" encoding="UTF-8"?>
<!DOCTYPE svg  PUBLIC '-//W3C//DTD SVG 1.1//EN'  'http://www.w3.org/Graphics/SVG/1.1/DTD/svg11.dtd'>
<svg enable-background="new 0 0 67.9 80" version="1.1" viewBox="0 0 67.9 80" xml:space="preserve" xmlns="http://www.w3.org/2000/svg">
<ellipse cx="34" cy="34" rx="34" ry="34" fill="#F39323"/>
<path d="m32.1 41.4s-2 0.5-3.6-0.3c-1.2-0.6-1.8-2.5-2.1-3.7-0.5-2.2 0.7-8.6 0.7-8.6s1.9 4.8 3 6.1c1.6 2 3.1 2.6 3.1 2.6l1.3-5.6s-1.6 0.8-3.3-0.9c-0.7-0.7-1.7-2.8-2-3.8-1.2-4.1-0.4-8-0.4-8s0.9 2.9 2.9 5c1.1 1.1 3.4 2.5 3.4 2.5l-0.1-5.3s-1.4-0.9-1.8-1.3c-0.9-0.9-1.7-2.8-1.5-5.7 0.2-2.2 2.8-7.1 2.8-7.1s1.1 4 3.1 8.5c1.1 2.5-0.8 5.1-0.8 5.1v5s1.3 0 2.8-2.3c1.7-2.6 2.3-6.7 2.3-6.7s2 5.8 2.1 7.9c0.1 1.8-0.9 5.3-2.1 6.6-0.5 0.6-1.8 1-2.6 0.9-0.6-0.1-2.3-0.6-2.3-0.6l-0.7 4.9 0.8 0.4s1.9-0.9 3.9-1.4c2.6-0.7 5-3.6 5-3.6s0 6.1-4.9 8.7c-1.7 0.9-6.2 1-6.2 1l-1.9 6.4s3.3 0.9 5.2-0.5c1.3-0.9 6.4-3 6.4-3s-3.1 6.8-6.7 9.1c-1.6 1.1-3.9 2.4-5.8 2-0.7-0.1-2.7-1.1-2.7-1.1l-2.8 4.9-3.2-1.6 3.2-4.4s-3.1-1.6-3.8-2.6c-1-1.3-1.6-4.7-1.5-6.3 0.1-2.1 1.2-8.2 1.2-8.2s1.2 5.7 3.6 7.7c2.9 2.3 4.3 3.8 4.3 3.8l1.7-6.5" fill="#fff" stroke="#fff" stroke-miterlimit="10"/>
<g fill="#B2B2B2">
	<path d="m23.9 77.2c-0.5 0.2-1.4 0.4-2.2 0.4-1.2 0-2.1-0.3-2.7-0.9s-1-1.5-0.9-2.4c0-2.2 1.6-3.5 3.8-3.5 0.9 0 1.5 0.2 1.9 0.3l-0.3 1.2c-0.4-0.2-0.8-0.3-1.6-0.3-1.3 0-2.2 0.7-2.2 2.2 0 1.4 0.9 2.2 2.1 2.2 0.3 0 0.6 0 0.7-0.1v-1.4h-1v-1.2h2.5v3.5z"/>
	<path d="m25.1 70.8h1.5v5.5h2.7v1.3h-4.2v-6.8z"/>
	<path d="m31.4 70.8v3.9c0 1.2 0.4 1.8 1.2 1.8s1.2-0.6 1.2-1.8v-3.9h1.5v3.8c0 2.1-1 3.1-2.8 3.1-1.7 0-2.7-0.9-2.7-3.1v-3.8h1.6z"/>
	<path d="M38,72h-1.8v-1.3h5.2V72h-1.8v5.5H38V72z"/>
	<path d="m46.2 74.6h-2.5v1.6h2.8v1.3h-4.3v-6.7h4.2v1.2h-2.6v1.4h2.5v1.2z"/>
	<path d="m47.5 77.5v-6.7h1.8l1.4 2.5c0.4 0.7 0.8 1.5 1.1 2.3-0.1-0.9-0.1-1.8-0.1-2.8v-2h1.4v6.7h-1.6l-1.5-2.6c-0.4-0.7-0.8-1.6-1.2-2.4 0 0.9 0.1 1.8 0.1 2.9v2h-1.4z"/>
</g>
</svg>
