<?xml version="1.0" encoding="UTF-8"?>
<!DOCTYPE svg  PUBLIC '-//W3C//DTD SVG 1.1//EN'  'http://www.w3.org/Graphics/SVG/1.1/DTD/svg11.dtd'>
<svg enable-background="new 0 0 67.9 80" version="1.1" viewBox="0 0 67.9 80" xml:space="preserve" xmlns="http://www.w3.org/2000/svg">
<ellipse transform="matrix(.9998 -.018232 .018232 .9998 -.6143 .6248)" cx="34" cy="34" rx="34" ry="34" fill="#FFE881"/>
<path d="m21.7 26.6s1.6-6.3 4.4-10.4c2.4-3.5 5.9-4.6 7.9-4.7 1.8 0 4.6 0.7 7 3.8 2.9 3.8 4.3 7.1 4.3 7.1l-1.1 4.1-2-4.7-2.5 4.8-2-6.8-4.9 6.6-2.6-5-2.7 5.6-1.2-5.4-4.6 5z" fill="#fff" stroke="#fff" stroke-linecap="square" stroke-miterlimit="10"/>
<path d="m37.5 31.5l0.9 3.8 3.1-5.4 2.3 5.1 2.9-7.4s2 9.5 1.9 12.7c-0.2 5.7-2.1 9.7-4.2 12.5-2.4 3-7.1 5-10.4 5-3.1 0-8.5-2.1-10.4-4.3-2.3-2.5-4.3-6.5-4.4-12.4 0-2 0.5-7.8 0.5-7.8l4.7-5.2 2.4 8.3 3.4-6.8 2.9 4.9 3.4-7.5c0 0.2 1 3.4 1 4.5" fill="#fff" stroke="#fff" stroke-miterlimit="10"/>
<g fill="#B2B2B2">
	<path d="m16.8 70.8v2.6h2.5v-2.6h1.5v6.7h-1.5v-2.8h-2.5v2.8h-1.5v-6.7h1.5z"/>
	<path d="m23.7 70.8v3.9c0 1.2 0.4 1.8 1.2 1.8s1.2-0.6 1.2-1.8v-3.9h1.5v3.8c0 2.1-1 3.1-2.8 3.1-1.7 0-2.7-0.9-2.7-3.1v-3.8h1.6z"/>
	<path d="M33,74.6h-2.5v1.6h2.8v1.3H29v-6.7h4.2V72h-2.6v1.4H33V74.6z"/>
	<path d="m36 77.5l-2.2-6.7h1.7l0.8 2.8 0.6 2.4 0.6-2.4 0.9-2.9h1.6l-2.3 6.7h-1.7z"/>
	<path d="m46.8 74.1c0 2.2-1.3 3.5-3.3 3.5s-3.2-1.5-3.2-3.4c0-2 1.3-3.5 3.3-3.5 2.1-0.1 3.2 1.5 3.2 3.4zm-4.9 0c0 1.3 0.6 2.2 1.6 2.2s1.6-1 1.6-2.3c0-1.2-0.6-2.2-1.6-2.2-1 0.1-1.6 1-1.6 2.3z"/>
	<path d="m47.9 75.9c0.4 0.2 1 0.4 1.7 0.4s1.1-0.3 1.1-0.7-0.3-0.7-1.1-1c-1.1-0.4-1.8-1-1.8-2 0-1.1 1-2 2.5-2 0.8 0 1.3 0.2 1.7 0.3l-0.3 1.2c-0.3-0.1-0.8-0.3-1.4-0.3s-1 0.3-1 0.7 0.4 0.6 1.3 0.9c1.2 0.4 1.7 1.1 1.7 2 0 1.1-0.9 2.1-2.7 2.1-0.8 0-1.5-0.2-1.9-0.4l0.2-1.2z"/>
</g>
</svg>
