<?xml version="1.0" encoding="UTF-8"?>
<!DOCTYPE svg  PUBLIC '-//W3C//DTD SVG 1.1//EN'  'http://www.w3.org/Graphics/SVG/1.1/DTD/svg11.dtd'>
<svg enable-background="new 0 0 67.9 79" version="1.1" viewBox="0 0 67.9 79" xml:space="preserve" xmlns="http://www.w3.org/2000/svg">
<ellipse cx="34" cy="34" rx="34" ry="34" fill="#90A8D7"/>
<path d="m38.1 51.1c0 2.3-2.3 4.5-3.8 4.5h-13.1c-1.5 0-4.2-2.2-4.2-4.5v-28c0-1 4.6-8.6 4.6-8.6s-0.9-0.5-0.9-1.3c0-1.3 0.5-1.7 0.9-1.7h11.9c0.4 0 0.8 0.4 0.8 1.4 0 1.2-0.9 1.6-0.9 1.6s4.7 7.6 4.6 8.6c0 1.2 0.1 28 0.1 28z" fill="#fff"/>
<path d="m24.1 14.8l-5.4 9.1s2.2 1.1 4.4 1.1c3.2 0 5-2.6 8.6-2.7 1.8-0.1 4.9 1.2 4.9 1.2l-5.2-8.8h-7.3" fill="#90A8D7"/>
<polygon points="52.6 55.7 42.5 55.7 41.1 38.7 54.3 38.7" fill="#fff"/>
<path d="m52.9 42.9s-1.2-0.2-3.3-0.2c-1.1 0-2.9 1.6-4.2 1.5-2.7 0-3.2-1.4-3.2-1.4l-0.2-3.1h11l-0.1 3.2z" fill="#90A7D6"/>
<g fill="#B2B2B2">
	<path d="m19.2 69.8h1.5v5.5h2.7v1.3h-4.2v-6.8z"/>
	<path d="m28.4 73.6h-2.5v1.6h2.8v1.3h-4.3v-6.7h4.2v1.2h-2.6v1.4h2.5v1.2z"/>
	<path d="m34.6 76.3c-0.3 0.1-0.9 0.3-1.7 0.3-2.3 0-3.5-1.4-3.5-3.4 0-2.3 1.6-3.6 3.7-3.6 0.8 0 1.4 0.2 1.7 0.3l-0.3 1.2c-0.3-0.1-0.7-0.3-1.3-0.3-1.2 0-2.1 0.7-2.1 2.2 0 1.3 0.8 2.2 2.2 2.2 0.5 0 1-0.1 1.3-0.2v1.3z"/>
	<path d="m37.2 69.8v2.6h2.5v-2.6h1.5v6.7h-1.5v-2.8h-2.5v2.8h-1.5v-6.7h1.5z"/>
	<path d="m46.5 73.6h-2.5v1.6h2.8v1.3h-4.3v-6.7h4.2v1.2h-2.6v1.4h2.5v1.2z"/>
</g>
</svg>
