<?xml version="1.0" encoding="UTF-8"?>
<!DOCTYPE svg  PUBLIC '-//W3C//DTD SVG 1.1//EN'  'http://www.w3.org/Graphics/SVG/1.1/DTD/svg11.dtd'>
<svg enable-background="new 0 0 67.9 80" version="1.1" viewBox="0 0 67.9 80" xml:space="preserve" xmlns="http://www.w3.org/2000/svg">
<ellipse cx="34" cy="34" rx="34" ry="34" fill="#8A181A"/>
<path d="m33.1 30v20s-4.8-0.5-6.3-0.9c-1.3-0.4-5-2.4-5-2.4l-3.4 0.9-3.3 5.8 2.2-7.2 2.9-0.9s-1.5-0.8-1.9-1.2c-0.3-0.3-1.1-1.5-1.1-1.5l-2.4 0.4-4.2 4.7 2.8-5.5 3.3-1.8v-0.8-0.7l-2.8-0.4-6.5 3.5 6.5-6 3 1s0-1.5 0.2-1.9c0.1-0.4 0.8-1.4 0.8-1.4l-2.3-1.2c0.8-3.8 0.6-3.8 1.5-6.6 0.7-2 2.9-2.6 2.9-2.6s0-4.1 1.3-6.1c2.1-3.2 6.7-3 6.7-3l-4.5 5.6 3.7-2.6s-0.7 3.7-1.3 4.6c-1.8 2.9-4.3 3.1-4.3 3.1s-0.3 2.7-0.7 3.5c-0.4 1-2.6 3.6-2.6 3.6l0.9 0.7s2.2-1.7 3.2-1.9c2.7-0.8 10.7-0.8 10.7-0.8" fill="#fff"/>
<path d="m32.1 30v20s5.5-0.5 7.4-0.9c1.6-0.4 5.8-2.4 5.8-2.4l4 0.9 3.8 5.8-2.6-7.2-3.5-1s1.8-0.8 2.3-1.2c0.4-0.3 1.3-1.5 1.3-1.5l3 0.5 4.9 4.7-3.3-5.5-3.8-1.8v-0.8-0.7l3.3-0.4 7.4 3.6-7.6-6-3.5 1s0-1.5-0.2-1.9c-0.1-0.4-1-1.4-1-1.4l2.7-1.2c-0.9-3.8-0.7-3.8-1.8-6.6-0.8-2-3.4-2.6-3.4-2.6s0.1-4.1-1.5-6.1c-2.4-3.2-7.9-3-7.9-3l5.2 5.6-4.4-2.6s0.8 3.7 1.5 4.6c2.1 2.9 5 3.1 5 3.1s0.4 2.7 0.8 3.5c0.5 1 3.1 3.6 3.1 3.6l-1.1 0.7s-2.6-1.7-3.7-1.9c-2.8-0.9-12.2-0.9-12.2-0.9" fill="#fff"/>
<g fill="#B2B2B2">
	<path d="m18.9 74.9c0-0.8-0.1-1.8-0.1-2.8-0.2 0.9-0.5 1.8-0.7 2.6l-0.8 2.6h-1.2l-0.7-2.6c-0.2-0.8-0.4-1.8-0.6-2.6 0 0.9-0.1 1.9-0.1 2.8l-0.1 2.6h-1.4l0.4-6.7h2l0.7 2.2 0.6 2.4c0.2-0.8 0.4-1.7 0.6-2.4l0.7-2.2h2l0.4 6.7h-1.6l-0.1-2.6z"/>
	<path d="m23.2 75.8l-0.5 1.7h-1.6l2.1-6.7h2l2.1 6.7h-1.6l-0.5-1.7h-2zm1.8-1.2l-0.4-1.4c-0.1-0.4-0.2-0.9-0.3-1.3-0.1 0.4-0.2 0.9-0.3 1.3l-0.4 1.4h1.4z"/>
	<path d="m28.2 70.8c0.5-0.1 1.2-0.1 2-0.1 1 0 1.7 0.2 2.2 0.5 0.4 0.3 0.6 0.8 0.6 1.4 0 0.9-0.6 1.4-1.2 1.7 0.5 0.2 0.7 0.6 0.9 1.3 0.2 0.8 0.4 1.6 0.5 1.9h-1.6c-0.1-0.2-0.3-0.7-0.5-1.6-0.2-0.8-0.5-1.1-1.1-1.1h-0.5v2.6h-1.5v-6.6zm1.5 2.9h0.6c0.8 0 1.2-0.4 1.2-1s-0.4-0.9-1.1-0.9h-0.7v1.9z"/>
	<path d="m35.7 70.8v6.7h-1.5v-6.7h1.5z"/>
	<path d="m37.1 75.9c0.4 0.2 1 0.4 1.7 0.4s1.1-0.3 1.1-0.7-0.3-0.7-1.1-1c-1.1-0.4-1.8-1-1.8-2 0-1.1 1-2 2.5-2 0.8 0 1.3 0.2 1.7 0.3l-0.3 1.2c-0.3-0.1-0.7-0.3-1.4-0.3s-1 0.3-1 0.7 0.4 0.6 1.2 0.9c1.2 0.4 1.8 1.1 1.8 2 0 1.1-0.9 2.1-2.7 2.1-0.8 0-1.5-0.2-1.9-0.4l0.2-1.2z"/>
	<path d="m47.4 77.3c-0.3 0.1-0.9 0.3-1.7 0.3-2.3 0-3.5-1.4-3.5-3.4 0-2.3 1.6-3.6 3.7-3.6 0.8 0 1.4 0.2 1.7 0.3l-0.3 1.2c-0.3-0.1-0.7-0.3-1.3-0.3-1.2 0-2.1 0.7-2.1 2.2 0 1.3 0.8 2.2 2.2 2.2 0.5 0 1-0.1 1.3-0.2v1.3z"/>
	<path d="m54.2 74.1c0 2.2-1.3 3.5-3.3 3.5s-3.2-1.5-3.2-3.4c0-2 1.3-3.5 3.3-3.5 2.1-0.1 3.2 1.5 3.2 3.4zm-4.8 0c0 1.3 0.6 2.2 1.6 2.2s1.6-1 1.6-2.3c0-1.2-0.6-2.2-1.6-2.2-1 0.1-1.6 1-1.6 2.3z"/>
</g>
</svg>
