<?xml version="1.0" encoding="UTF-8"?>
<!DOCTYPE svg  PUBLIC '-//W3C//DTD SVG 1.1//EN'  'http://www.w3.org/Graphics/SVG/1.1/DTD/svg11.dtd'>
<svg enable-background="new 0 0 67.9 79" version="1.1" viewBox="0 0 67.9 79" xml:space="preserve" xmlns="http://www.w3.org/2000/svg">
<ellipse cx="34" cy="34" rx="34" ry="34" fill="#D9A73E"/>
<path d="m44.5 41.8c-1 1-3.1-1-5.7-3.1-0.5-0.4-1.8 1.5-2.3 1l-3-3-6.3-1.8-11.4-11.3c-3.1-3.1-4.1-6-2.9-7.2l6.9-7c1.2-1.2 3.4-0.9 6.5 2.2l11.8 11.6 1.4 7.2 3.2 3.3c0.3 0.3-1.4 1.8-1.2 2.1 2 2.7 4.4 4.6 3.3 5.7l-0.3 0.3z" fill="#fff"/>
<path d="m50.5 51.6c0 2-1.9 3.7-4.3 3.7s-4.3-1.6-4.3-3.7c0-1.9 1.3-2.7 2.2-4.6 0.7-1.4 1-3.5 1-3.5s1.6 2.6 3.3 3.8 2.1 2.5 2.1 4.3z" fill="#fff"/>
<path d="m34.5 22.8s-3.7 3.1-4.7 4.1-3.5 4-3.5 4l-8.1-8.1s2.8-3.2 3.8-4.2c1.1-1.1 4.4-3.9 4.4-3.9l8.1 8.1z" fill="#D9A73E"/>
<g fill="#B2B2B2">
	<path d="m18.9 73.9c0-0.8-0.1-1.8-0.1-2.8-0.2 0.9-0.5 1.8-0.7 2.6l-0.8 2.6h-1.2l-0.7-2.6c-0.2-0.8-0.4-1.8-0.6-2.6 0 0.9-0.1 1.9-0.1 2.8l-0.1 2.6h-1.4l0.4-6.7h2l0.7 2.2 0.6 2.4c0.2-0.8 0.4-1.7 0.6-2.4l0.7-2.2h2l0.4 6.7h-1.6l-0.1-2.6z"/>
	<path d="m27.9 73.1c0 2.2-1.3 3.5-3.3 3.5s-3.2-1.5-3.2-3.4c0-2 1.3-3.5 3.3-3.5 2-0.1 3.2 1.5 3.2 3.4zm-4.9 0c0 1.3 0.6 2.2 1.6 2.2s1.6-1 1.6-2.3c0-1.2-0.6-2.2-1.6-2.2-1 0.1-1.6 1-1.6 2.3z"/>
	<path d="m28.9 74.9c0.4 0.2 1 0.4 1.7 0.4s1.1-0.3 1.1-0.7-0.3-0.7-1.1-1c-1.1-0.4-1.8-1-1.8-2 0-1.1 1-2 2.5-2 0.8 0 1.3 0.2 1.7 0.3l-0.3 1.2c-0.3-0.1-0.7-0.3-1.4-0.3s-1 0.3-1 0.7 0.4 0.6 1.2 0.9c1.2 0.4 1.7 1.1 1.7 2 0 1.1-0.9 2.1-2.7 2.1-0.8 0-1.5-0.2-1.9-0.4l0.3-1.2z"/>
	<path d="M35.6,71h-1.8v-1.3h5.2V71h-1.8v5.5h-1.5V71z"/>
	<path d="m40.6 74.8l-0.5 1.7h-1.6l2.1-6.7h2l2.1 6.7h-1.6l-0.5-1.7h-2zm1.7-1.2l-0.4-1.4c-0.1-0.4-0.2-0.9-0.3-1.3-0.1 0.4-0.2 0.9-0.3 1.3l-0.4 1.4h1.4z"/>
	<path d="m45.2 75.7l3.2-4.6h-2.9v-1.3h4.9v0.9l-3.1 4.6h3.2v1.3h-5.2v-0.9z"/>
	<path d="m53.1 74.8l-0.5 1.7h-1.6l2.1-6.7h2l2.1 6.7h-1.6l-0.6-1.7h-1.9zm1.7-1.2l-0.4-1.4c-0.1-0.4-0.2-0.9-0.3-1.3-0.1 0.4-0.2 0.9-0.3 1.3l-0.4 1.4h1.4z"/>
</g>
</svg>
