<?xml version="1.0" encoding="UTF-8"?>
<!DOCTYPE svg  PUBLIC '-//W3C//DTD SVG 1.1//EN'  'http://www.w3.org/Graphics/SVG/1.1/DTD/svg11.dtd'>
<svg enable-background="new 0 0 67.9 80" version="1.1" viewBox="0 0 67.9 80" xml:space="preserve" xmlns="http://www.w3.org/2000/svg">
<ellipse cx="34" cy="34" rx="34" ry="34" fill="#42BCEB"/>
<path d="m7.8 35.5l1.2 1.8s0.9 1.8 2.1 3.3c1.1 1.3 5.8 8.3 21.2 9 9.6 0.5 18.8-11.5 18.8-11.5s2 3.4 2.8 4.3c1.1 1.3 3.8 3.7 4.7 2.5 0.2-0.2-1.3-8.2-1.5-9.5s2-9.8 1.3-10.2c-1.2-0.6-3.8 2-4.7 3.1-0.8 1-3 4.6-3 4.6s-6.7-6.2-12-10.4c-2.5-2-7.2-3-7.2-3l-1.1 2.8s-6.9 1.2-11.5 3.7c-4.1 2.2-11.1 9.5-11.1 9.5z" fill="#fff" stroke="#fff" stroke-miterlimit="10"/>
<ellipse cx="17.2" cy="34.1" rx="2.1" ry="2.2" fill="#42BCEB"/>
<path d="m22.2 47.9s2.6-5.5 2.8-10.3c0.4-7.3-1.8-13.2-1.8-13.2" fill="none" stroke="#43BCEB" stroke-linecap="round" stroke-miterlimit="10" stroke-width="2"/>
<path d="m15.8 39.4s-1.2 0.3-4.7-1c-1.8-0.7-3.6-3.3-3.6-3.3" fill="none" stroke="#43BCEB" stroke-linecap="round" stroke-miterlimit="10"/>
<g fill="#B2B2B2">
	<path d="m12.2 70.8c0.5-0.1 1.1-0.1 2.1-0.1 0.9 0 1.6 0.2 2.1 0.5 0.4 0.3 0.7 0.9 0.7 1.6s-0.2 1.2-0.6 1.6c-0.5 0.5-1.3 0.7-2.2 0.7h-0.5v2.4h-1.5v-6.7zm1.6 3.1h0.5c0.8 0 1.3-0.4 1.3-1.1 0-0.6-0.4-1-1.2-1-0.3 0-0.5 0-0.6 0.1v2z"/>
	<path d="m22.1 74.6h-2.5v1.6h2.8v1.3h-4.3v-6.7h4.2v1.2h-2.6v1.4h2.5v1.2z"/>
	<path d="m23.4 75.9c0.4 0.2 1 0.4 1.7 0.4s1.1-0.3 1.1-0.7-0.3-0.7-1.1-1c-1.1-0.4-1.8-1-1.8-2 0-1.1 1-2 2.5-2 0.8 0 1.3 0.2 1.7 0.3l-0.3 1.2c-0.3-0.1-0.7-0.3-1.4-0.3s-1 0.3-1 0.7 0.4 0.6 1.2 0.9c1.2 0.4 1.7 1.1 1.7 2 0 1.1-0.9 2.1-2.7 2.1-0.8 0-1.5-0.2-1.9-0.4l0.3-1.2z"/>
	<path d="m33.7 77.3c-0.3 0.1-0.9 0.3-1.7 0.3-2.3 0-3.5-1.4-3.5-3.4 0-2.3 1.6-3.6 3.7-3.6 0.8 0 1.4 0.2 1.7 0.3l-0.3 1.2c-0.3-0.1-0.7-0.3-1.3-0.3-1.2 0-2.1 0.7-2.1 2.2 0 1.3 0.8 2.2 2.2 2.2 0.5 0 1-0.1 1.3-0.2v1.3z"/>
	<path d="m36.4 75.8l-0.5 1.7h-1.6l2.1-6.7h2l2.1 6.7h-1.6l-0.5-1.7h-2zm1.7-1.2l-0.4-1.4c-0.1-0.4-0.2-0.9-0.3-1.3-0.1 0.4-0.2 0.9-0.3 1.3l-0.4 1.4h1.4z"/>
	<path d="m41.4 70.8c0.6-0.1 1.3-0.1 2.1-0.1 1.3 0 2.1 0.2 2.8 0.7s1.1 1.3 1.1 2.5c0 1.3-0.5 2.2-1.1 2.7-0.7 0.6-1.8 0.9-3.1 0.9-0.8 0-1.3 0-1.7-0.1v-6.6zm1.5 5.5h0.5c1.4 0 2.3-0.8 2.3-2.4 0-1.4-0.8-2.1-2.1-2.1-0.3 0-0.6 0-0.7 0.1v4.4z"/>
	<path d="m54.5 74.1c0 2.2-1.3 3.5-3.3 3.5s-3.2-1.5-3.2-3.4c0-2 1.3-3.5 3.3-3.5 2.1-0.1 3.2 1.5 3.2 3.4zm-4.8 0c0 1.3 0.6 2.2 1.6 2.2s1.6-1 1.6-2.3c0-1.2-0.6-2.2-1.6-2.2-1 0.1-1.6 1-1.6 2.3z"/>
</g>
</svg>
