<?xml version="1.0" encoding="UTF-8"?>
<!DOCTYPE svg  PUBLIC '-//W3C//DTD SVG 1.1//EN'  'http://www.w3.org/Graphics/SVG/1.1/DTD/svg11.dtd'>
<svg enable-background="new 0 0 67.9 81" version="1.1" viewBox="0 0 67.9 81" xml:space="preserve" xmlns="http://www.w3.org/2000/svg">
<ellipse cx="34" cy="34" rx="34" ry="34" fill="#9E8664"/>
<ellipse transform="matrix(.8321 -.5546 .5546 .8321 -21.368 20.368)" cx="23" cy="45.5" rx="4" ry="6.5" fill="#fff"/>
<ellipse transform="matrix(.3903 -.9207 .9207 .3903 -22.412 65.119)" cx="38" cy="49.5" rx="4" ry="6.5" fill="#fff"/>
<ellipse transform="matrix(.866 -.5 .5 .866 -14.316 29.537)" cx="48" cy="41.5" rx="4" ry="6.5" fill="#fff"/>
<ellipse transform="matrix(.9168 -.3994 .3994 .9168 -6.5023 21.759)" cx="49" cy="26.5" rx="4" ry="6.5" fill="#fff"/>
<ellipse transform="matrix(.9168 -.3994 .3994 .9168 -10.847 8.9115)" cx="16" cy="30.5" rx="4" ry="6.5" fill="#fff"/>
<ellipse transform="matrix(.9168 -.3994 .3994 .9168 -12.477 15.086)" cx="30" cy="37.5" rx="4" ry="6.5" fill="#fff"/>
<ellipse transform="matrix(.9168 -.3994 .3994 .9168 -7.0687 11.042)" cx="23" cy="22.5" rx="4" ry="6.5" fill="#fff"/>
<ellipse transform="matrix(.9168 -.3994 .3994 .9168 -8.2167 17.532)" cx="38" cy="28.5" rx="4" ry="6.5" fill="#fff"/>
<g fill="#B2B2B2">
	<path d="m15.3 76.9c0.4 0.2 1 0.4 1.7 0.4s1.1-0.3 1.1-0.7-0.3-0.7-1.1-1c-1.1-0.4-1.8-1-1.8-2 0-1.1 1-2 2.5-2 0.8 0 1.3 0.2 1.7 0.3l-0.4 1.3c-0.3-0.1-0.7-0.3-1.4-0.3s-1 0.3-1 0.7 0.4 0.6 1.2 0.9c1.2 0.4 1.7 1.1 1.7 2 0 1.1-0.9 2.1-2.7 2.1-0.8 0-1.5-0.2-1.9-0.4l0.4-1.3z"/>
	<path d="m24.7 75.6h-2.5v1.6h2.8v1.3h-4.3v-6.7h4.2v1.2h-2.6v1.4h2.5v1.2z"/>
	<path d="m26 76.9c0.4 0.2 1 0.4 1.7 0.4s1.1-0.3 1.1-0.7-0.3-0.7-1.1-1c-1.1-0.4-1.8-1-1.8-2 0-1.1 1-2 2.5-2 0.8 0 1.3 0.2 1.7 0.3l-0.3 1.2c-0.3-0.1-0.7-0.3-1.4-0.3s-1 0.3-1 0.7 0.4 0.6 1.2 0.9c1.2 0.4 1.7 1.1 1.7 2 0 1.1-0.9 2.1-2.7 2.1-0.8 0-1.5-0.2-1.9-0.4l0.3-1.2z"/>
	<path d="m33 76.8l-0.5 1.7h-1.6l2.1-6.7h2l2.1 6.7h-1.6l-0.5-1.7h-2zm1.7-1.2l-0.4-1.4c-0.1-0.4-0.2-0.9-0.3-1.3-0.1 0.4-0.2 0.9-0.3 1.3l-0.4 1.4h1.4z"/>
	<path d="m43.6 75.9c0-0.8-0.1-1.8-0.1-2.8-0.2 0.9-0.5 1.8-0.7 2.6l-0.8 2.7h-1.2l-0.7-2.6c-0.2-0.8-0.5-1.8-0.6-2.6 0 0.9-0.1 1.9-0.1 2.8l-0.1 2.6h-1.4l0.4-6.7h2l0.7 2.2 0.6 2.4c0.2-0.8 0.4-1.7 0.6-2.4l0.7-2.2h2l0.4 6.7h-1.5l-0.2-2.7z"/>
	<path d="m52.6 75.1c0 2.2-1.3 3.5-3.3 3.5s-3.2-1.5-3.2-3.4c0-2 1.3-3.5 3.3-3.5 2-0.1 3.2 1.5 3.2 3.4zm-4.9 0c0 1.3 0.6 2.2 1.6 2.2s1.6-1 1.6-2.3c0-1.2-0.6-2.2-1.6-2.2-1 0.1-1.6 1-1.6 2.3z"/>
</g>
</svg>
