<?xml version="1.0" encoding="UTF-8"?>
<!DOCTYPE svg  PUBLIC '-//W3C//DTD SVG 1.1//EN'  'http://www.w3.org/Graphics/SVG/1.1/DTD/svg11.dtd'>
<svg enable-background="new 0 0 67.9 81" version="1.1" viewBox="0 0 67.9 81" xml:space="preserve" xmlns="http://www.w3.org/2000/svg">
<ellipse cx="34" cy="34" rx="34" ry="34" fill="#6AB463"/>
<path d="m28.2 27.8c-1.7-2.8-1.6-5.1-3.8-7.8-3.9-4.9-9.7-5.5-9.7-5.5s-1.4 9.2 1.5 13.2c3.6 5 1.9 1.8 4.7 5.3 1.3 1.8 0.8 5.4 4.6 8.9s6.2 2.2 7.6 3.8c1.3 1.6 3 4.8 5.8 6 5.7 2.5 13.8 1 13.8 1s0.8-5.6-5.4-10.8c-3.3-2.7-6.9-1.6-8.6-3.2-2-1.8 0-4-3.9-7.4-3.7-3.4-5.1-1.9-6.6-3.5z" fill="#fff"/>
<path d="m49 49.5c-0.3 1.3-3.6 1.3-6 0.8s-4.7-3.2-4.7-4.4c0-1.3 1.8-3.3 4.2-2.8s6.8 5.1 6.5 6.4z" fill="#6AB463"/>
<path d="m17.1 17.5c0.8-0.5 3.2 1.1 4.8 3 2.2 2.7 4.3 6.6 3.4 7.5-1 0.9-5.5 1.5-7.7-2.5-1.2-2.2-1.8-7.2-0.5-8z" fill="#6AB463"/>
<path d="m35.6 40.4c-1.1 1.2-5.4 1.1-7.5-1-2.2-2.1-2.8-5.5-1.7-6.7s3-0.9 4.7 0.5 2.8 3.5 3.5 4.2c0.8 1 1.7 2.2 1 3z" fill="#6AB463"/>
<g fill="#B2B2B2">
	<path d="m25.3 76.9c0.4 0.2 1 0.4 1.7 0.4s1.1-0.3 1.1-0.7-0.3-0.7-1.1-1c-1.1-0.4-1.8-1-1.8-2 0-1.1 1-2 2.5-2 0.8 0 1.3 0.2 1.7 0.3l-0.4 1.3c-0.3-0.1-0.7-0.3-1.4-0.3s-1 0.3-1 0.7 0.4 0.6 1.2 0.9c1.2 0.4 1.7 1.1 1.7 2 0 1.1-0.9 2.1-2.7 2.1-0.8 0-1.5-0.2-1.9-0.4l0.4-1.3z"/>
	<path d="m36.8 75.1c0 2.2-1.3 3.5-3.3 3.5s-3.2-1.5-3.2-3.4c0-2 1.3-3.5 3.3-3.5 2.1-0.1 3.2 1.5 3.2 3.4zm-4.9 0c0 1.3 0.6 2.2 1.6 2.2s1.6-1 1.6-2.3c0-1.2-0.6-2.2-1.6-2.2-1 0.1-1.6 1-1.6 2.3z"/>
	<path d="m39.1 71.8h1.5v4.2c0 1.9-0.9 2.6-2.4 2.6-0.4 0-0.8-0.1-1.1-0.2l0.2-1.2c0.2 0.1 0.5 0.1 0.8 0.1 0.6 0 1-0.3 1-1.3v-4.2z"/>
	<path d="m43.5 76.8l-0.5 1.7h-1.6l2.1-6.7h2l2.1 6.7h-1.6l-0.5-1.7h-2zm1.7-1.2l-0.4-1.4c-0.1-0.4-0.2-0.9-0.3-1.3-0.1 0.4-0.2 0.9-0.3 1.3l-0.4 1.4h1.4z"/>
</g>
</svg>
